<svg xmlns="http://www.w3.org/2000/svg" xmlns:xlink="http://www.w3.org/1999/xlink" version="1.1" width="630.95999pt" height="191.04pt" viewBox="0 0 630.95999 191.04">
<defs>
<clipPath id="clip_0">
<path transform="matrix(.24,0,0,.24,0,0)" d="M0 0H2629.1666V789.3502H0Z" fill-rule="evenodd"/>
</clipPath>
</defs>
<g clip-path="url(#clip_0)">
<path transform="matrix(.72031959,0,0,.72031959,.36015979,.36015979)" stroke-width="1" stroke-linecap="butt" stroke-miterlimit="4" stroke-linejoin="miter" fill="none" stroke="#000000" d="M242 1H447V95H242Z"/>
<path transform="matrix(.72031959,0,0,.72031959,.36015979,.36015979)" stroke-width="1" stroke-linecap="butt" stroke-miterlimit="4" stroke-linejoin="miter" fill="none" stroke="#000000" d="M260.05 36H429.4V54H260.05Z"/>
<text xml:space="preserve" transform="matrix(.72031959 0 0 .72031959 0 0)" font-size="11" font-family="TimesNewRomanPSMT"><tspan y="49" x="291.1875 299.1295 302.1875 310.7455 316.2455 320.5245 326.0245 331.5245 336.4085 340.0715 343.12953 348.01353 350.76353 358.10054 363.60054 367.26353 370.9265 375.81053 380.69453 383.75254 386.81056 392.31056">Atmospheric Correction</tspan></text>
<path transform="matrix(.72031959,0,0,.72031959,.36015979,.36015979)" stroke-width="1" stroke-linecap="butt" stroke-miterlimit="4" stroke-linejoin="miter" fill="none" stroke="#000000" d="M260.05 54H429.4V72H260.05Z"/>
<text xml:space="preserve" transform="matrix(.72031959 0 0 .72031959 0 0)" font-size="11" font-family="TimesNewRomanPSMT"><tspan y="67" x="305.39064 312.72764 315.78565 321.28565 326.78565 332.28565 335.03565 341.75666 347.25666 350.31468 353.97767 358.86167 363.74568 366.80369 369.8617 375.3617">Cloud Extraction</tspan></text>
<text xml:space="preserve" transform="matrix(.72031959 0 0 .72031959 0 0)" font-size="11" font-family="TimesNewRomanPSMT"><tspan y="67" x="380.8617"> </tspan></text>
<path transform="matrix(.72031959,0,0,.72031959,0,0)" d="M250.91 9.83H438.08003V27.83H250.91Z" fill="#cce5ff"/>
<path transform="matrix(.72031959,0,0,.72031959,0,0)" stroke-width="2" stroke-linecap="butt" stroke-miterlimit="4" stroke-linejoin="miter" fill="none" stroke="#36393d" d="M250.91 9.83H438.08003V27.83H250.91Z"/>
<text xml:space="preserve" transform="matrix(.72031959 0 0 .72031959 0 0)" font-size="11" font-family="TimesNewRomanPS" font-weight="bold"><tspan y="23" x="297.1875 303.3035 308.8035 312.4665 317.3505 320.4085 323.46653 326.52455 330.18754 335.07154 337.61573 344.7539 347.81193 356.9749 361.85893 365.5219 369.8009 374.6849 379.5689 382.62693 387.51094">Satellite Time-series</tspan></text>
<path transform="matrix(.72031959,0,0,.72031959,.36015979,.36015979)" stroke-width="1" stroke-linecap="butt" stroke-miterlimit="10" stroke-linejoin="miter" fill="none" stroke="#000000" d="M344.5 95 344.23 102.64"/>
<path transform="matrix(.72031959,0,0,.72031959,.36015979,.36015979)" d="M344.04 107.88 340.79 100.76 344.23 102.64 347.79 101.01 344.04 107.88Z"/>
<path transform="matrix(.72031959,0,0,.72031959,.36015979,.36015979)" stroke-width="1" stroke-linecap="butt" stroke-miterlimit="10" stroke-linejoin="miter" fill="none" stroke="#000000" d="M344.04 107.88 340.79 100.76 344.23 102.64 347.79 101.01 344.04 107.88Z"/>
<path transform="matrix(.72031959,0,0,.72031959,.36015979,.36015979)" stroke-width="1" stroke-linecap="butt" stroke-miterlimit="4" stroke-linejoin="miter" fill="none" stroke="#000000" d="M260.05 72H429.4V90H260.05Z"/>
<text xml:space="preserve" transform="matrix(.72031959 0 0 .72031959 0 0)" font-size="11" font-family="TimesNewRomanPSMT"><tspan y="85" x="310.42189 318.36387 323.86387 326.92189 331.20088 336.08488 338.83488 346.17189 351.05589 359.6139 365.1139 370.6139 375.4979">Noise Removal</tspan></text>
<path transform="matrix(.72031959,0,0,.72031959,.36015979,.36015979)" stroke-width="1" stroke-linecap="butt" stroke-miterlimit="4" stroke-linejoin="miter" fill="none" stroke="#000000" d="M1 2.5H213V139.5H1Z"/>
<path transform="matrix(.72031959,0,0,.72031959,0,0)" d="M14.03 11.86H199.53V30.579998H14.03Z" fill="#b1ddf0"/>
<path transform="matrix(.72031959,0,0,.72031959,0,0)" stroke-width="2" stroke-linecap="butt" stroke-miterlimit="4" stroke-linejoin="miter" fill="none" stroke="#10739e" d="M14.03 11.86H199.53V30.579998H14.03Z"/>
<text xml:space="preserve" transform="matrix(.72031959 0 0 .72031959 0 0)" font-size="11" font-family="TimesNewRomanPS" font-weight="bold"><tspan y="25" x="33.796876 41.738878 47.238878 50.90188 56.40188 58.546876 66.48888 71.37288 77.48888 83.60487 86.66287 90.94187 93.99987 97.66287 100.72087 106.22087 112.33687 115.08687 120.58687 126.702869 132.81887 135.56887 142.90587 148.40587 154.52187 159.40587 162.46387 165.52187 168.57987 174.69586">Data Acquisition and Labelling</tspan></text>
<path transform="matrix(.72031959,0,0,.72031959,.36015979,.36015979)" stroke-width="1" stroke-linecap="butt" stroke-miterlimit="4" stroke-linejoin="miter" fill="none" stroke="#000000" d="M11.81 72H202.2V92.5H11.81Z"/>
<text xml:space="preserve" transform="matrix(.72031959 0 0 .72031959 0 0)" font-size="11" font-family="TimesNewRomanPSMT"><tspan y="86" x="15.21875 22.501954 25.559954 29.838955 35.338956 40.222955 43.280954 46.030954 49.08895 54.58895 57.64695 62.53095 66.19395 71.69395 75.35695 80.24095 83.29895 88.18295 91.24095 94.29895 99.79895 105.29895 108.04895 113.54895 119.04895 121.79895 129.74095 135.24095 140.74095 146.24095 149.29895 154.18296 156.93296 163.65395 168.53795 172.20095 175.25894 180.75894 183.50894 189.62494 193.28794">Visual interpretation on Google Earth Pro</tspan></text>
<path transform="matrix(.72031959,0,0,.72031959,.36015979,.36015979)" stroke-width="1" stroke-linecap="butt" stroke-miterlimit="4" stroke-linejoin="miter" fill="none" stroke="#000000" d="M11.37 40H200.76V60.5H11.37Z"/>
<text xml:space="preserve" transform="matrix(.72031959 0 0 .72031959 0 0)" font-size="11" font-family="TimesNewRomanPSMT"><tspan y="54" x="24.6875 30.1875 32.9375 39.0535 43.9375 49.4375 52.4955 55.553499 61.053499 65.9375 68.9955 71.7455 77.2455 79.9955 87.3325 95.2745 102.611499 105.361499 108.419498 116.97749 121.861499 127.361499 132.2455 136.5245 139.2745 142.9375 150.8795 156.3795 161.8795 165.5425 173.4845 178.9845 182.64749">7 Sentinel 2 RGB images (Nov-Apr)</tspan></text>
<path transform="matrix(.72031959,0,0,.72031959,.36015979,.36015979)" stroke-width="1" stroke-linecap="butt" stroke-miterlimit="4" stroke-linejoin="miter" fill="none" stroke="#000000" d="M11.8 104H202.19V124.5H11.8Z"/>
<text xml:space="preserve" transform="matrix(.72031959 0 0 .72031959 0 0)" font-size="11" font-family="TimesNewRomanPSMT"><tspan y="118" x="46.046876 55.825876 60.709875 64.37287 69.87287 72.93087 78.43087 83.93087 86.68087 92.18087 95.84387 98.59387 106.53587 112.03587 116.919879 121.80388 124.86188 127.61188 133.11188 138.61188 141.66988 147.16988 152.66988 158.16988 163.66988">Marking of wheat polygons</tspan></text>
<path transform="matrix(.72031959,0,0,.72031959,.36015979,.36015979)" stroke-width="1" stroke-linecap="butt" stroke-miterlimit="4" stroke-linejoin="miter" fill="none" stroke="#000000" d="M72 154.5H411V261H72Z"/>
<path transform="matrix(.72031959,0,0,.72031959,0,0)" d="M84 163.86H400V185H84Z" fill="#cdeb8b"/>
<path transform="matrix(.72031959,0,0,.72031959,0,0)" stroke-width="2" stroke-linecap="butt" stroke-miterlimit="4" stroke-linejoin="miter" fill="none" stroke="#36393d" d="M84 163.86H400V185H84Z"/>
<text xml:space="preserve" transform="matrix(.72031959 0 0 .72031959 0 0)" font-size="11" font-family="TimesNewRomanPS" font-weight="bold"><tspan y="178" x="200.98438 211.37744 216.26145 221.76145 225.42444 231.54044 236.42444 241.10645 243.24951 251.19152 257.30754 262.80754 265.86555 271.36555 275.64454 278.70256">Weather Analysis</tspan></text>
<path transform="matrix(.72031959,0,0,.72031959,.36015979,.36015979)" stroke-width="1" stroke-linecap="butt" stroke-miterlimit="4" stroke-linejoin="miter" fill="none" stroke="#000000" d="M113 189.5H369V208.83H113Z"/>
<text xml:space="preserve" transform="matrix(.72031959 0 0 .72031959 0 0)" font-size="11" font-family="TimesNewRomanPSMT"><tspan y="203" x="181.42188 191.20088 196.70088 202.20088 205.25888 210.75888 216.25888 219.00888 223.89289 229.39289 234.27689 237.93988 242.82389 248.32389 253.20789 255.95789 260.8419 263.8999 266.6499 272.1499 277.6499 280.3999 285.8999 290.7839 296.2839">Moving average at 15 days</tspan></text>
<path transform="matrix(.72031959,0,0,.72031959,.36015979,.36015979)" stroke-width="1" stroke-linecap="butt" stroke-miterlimit="4" stroke-linejoin="miter" fill="none" stroke="#000000" d="M113 212.5H369V230.91H113Z"/>
<text xml:space="preserve" transform="matrix(.72031959 0 0 .72031959 0 0)" font-size="11" font-family="TimesNewRomanPSMT"><tspan y="226" x="160.1875 167.5245 173.0245 178.5245 181.5825 186.4665 189.2165 193.49552 198.99552 202.05352 205.11151 210.61151 215.49552 218.24552 221.30352 226.80352 229.86151 234.74552 238.40851 243.90851 249.40851 252.4665 257.3505 260.4085 263.46653 268.96653 274.46653 277.21653 282.10054 285.15855 287.90855 293.40855 298.90855 301.65855 307.15855 312.04255 317.54255">Cubic spline interpolation at 90 days</tspan></text>
<path transform="matrix(.72031959,0,0,.72031959,.36015979,.36015979)" stroke-width="1" stroke-linecap="butt" stroke-miterlimit="4" stroke-linejoin="miter" fill="none" stroke="#000000" d="M113.04 236H369V254.41H113.04Z"/>
<text xml:space="preserve" transform="matrix(.72031959 0 0 .72031959 0 0)" font-size="11" font-family="TimesNewRomanPSMT"><tspan y="249" x="118.828128 126.77013 131.65413 135.31713 138.37512 143.87512 148.75913 151.81713 154.87512 160.37512 165.87512 168.62512 174.12512 177.78812 180.53812 184.20111 189.08512 192.14311 197.02712 199.77712 205.27712 208.94011 211.69011 216.57411 222.07411 226.95812 232.45812 237.95812 242.84212 245.59212 249.25511 254.75511 258.41813 261.16813 264.22615 269.11015 277.66816 283.16816 288.05216 291.71516 296.59916 299.65718 305.15718 310.04118 312.79118 317.67518 323.17518 328.67518 331.42518 335.08818 339.97218 343.03019 348.53019 352.19319 357.07719 360.1352">Derivation of rate of change for temperatue and rainfall</tspan></text>
<path transform="matrix(.72031959,0,0,.72031959,0,0)" d="M241 110.5H448V139.5H241Z" fill="#f8cecc"/>
<path transform="matrix(.72031959,0,0,.72031959,0,0)" stroke-width="2" stroke-linecap="butt" stroke-miterlimit="4" stroke-linejoin="miter" fill="none" stroke="#b85450" d="M241 110.5H448V139.5H241Z"/>
<text xml:space="preserve" transform="matrix(.72031959 0 0 .72031959 0 0)" font-size="11" font-family="TimesNewRomanPSMT"><tspan y="129" x="245.57813 251.91065 254.96865 263.52665 268.41065 272.07365 276.35264 281.23664 284.89964 287.95765 292.84165 297.12065 299.87065 307.81263 315.7546 323.6966 327.3596 330.1096 338.6676 343.5516 347.8306 353.3306 356.3886 361.8886 367.3886 370.1386 373.19664 378.69664 381.44664 385.10963 389.99363 393.65663 398.54063 402.2036 407.08763 412.58763 417.47163 422.35563 425.10563 429.98963 433.65263 438.53663">Time-series NDVI masking in reference area</tspan></text>
<path transform="matrix(.72031959,0,0,.72031959,.36015979,.36015979)" stroke-width="1" stroke-linecap="butt" stroke-miterlimit="4" stroke-linejoin="miter" fill="none" stroke="#000000" d="M491 1H874V171H491Z"/>
<path transform="matrix(.72031959,0,0,.72031959,0,0)" d="M499 11.56H854V37.12H499Z" fill="#b1ddf0"/>
<path transform="matrix(.72031959,0,0,.72031959,0,0)" stroke-width="2" stroke-linecap="butt" stroke-miterlimit="4" stroke-linejoin="miter" fill="none" stroke="#10739e" d="M499 11.56H854V37.12H499Z"/>
<text xml:space="preserve" transform="matrix(.72031959 0 0 .72031959 0 0)" font-size="11" font-family="TimesNewRomanPS" font-weight="bold"><tspan y="28" x="597 607.384 613.5 616.558 620.221 623.279 626.942 632.442 637.326 642.826 647.5044 650.2544 656.9754 663.09146 667.9754 674.09146 679.59146 682.6494 688.1494 693.6494 699.1494 701.8994 709.2364 713.5154 717.1784 720.2364 729.3994 734.8994 738.56246 741.6204 747.1204">Multi-year Phenology Estimation</tspan></text>
<text xml:space="preserve" transform="matrix(.72031959 0 0 .72031959 0 0)" font-size="11" font-family="TimesNewRomanPS" font-weight="bold"><tspan y="28" x="753.23648"> </tspan></text>
<path transform="matrix(.72031959,0,0,.72031959,.36015979,.36015979)" d="M658 80V57H860V80" fill="#e1d5e7"/>
<path transform="matrix(.72031959,0,0,.72031959,.36015979,.36015979)" stroke-width="1" stroke-linecap="butt" stroke-miterlimit="10" stroke-linejoin="miter" fill="none" stroke="#9673a6" d="M658 80V57H860V80"/>
<path transform="matrix(.72031959,0,0,.72031959,.36015979,.36015979)" stroke-width="1" stroke-linecap="butt" stroke-miterlimit="10" stroke-linejoin="miter" fill="none" stroke="#9673a6" d="M658 80V161H860V80"/>
<path transform="matrix(.72031959,0,0,.72031959,.36015979,.36015979)" stroke-width="1" stroke-linecap="butt" stroke-miterlimit="10" stroke-linejoin="miter" fill="none" stroke="#9673a6" d="M658 80H860"/>
<text xml:space="preserve" transform="matrix(.72031959 0 0 .72031959 0 0)" font-size="12" font-family="TimesNewRomanPS" font-weight="bold"><tspan y="73" x="681.8281 691.1641 695.1601 699.15609 702.49209 705.82809 712.50009 717.82809 720.82809 726.15609 732.82809 738.82809 745.50009 751.50009 756.82809 759.82809 766.50009 772.50009 775.83609 782.50808 786.504 789.504 796.176 801.504 805.5 810.828 816.156 820.152 823.488 829.488">Offline change point detection</tspan></text>
<path transform="matrix(.72031959,0,0,.72031959,.36015979,.36015979)" d="M679.55 91H836.45C836.987 91 837.5036 91.10276 837.99978 91.30828 838.4959 91.5138 838.9339 91.80644 839.3137 92.18621 839.6934 92.56597 839.9861 93.003948 840.1916 93.50013 840.39718 93.99631 840.49996 94.51293 840.5 95.05V113.95C840.49996 114.48705 840.39718 115.00368 840.19168 115.499858 839.9861 115.99603 839.6934 116.43401 839.3137 116.81378 838.9339 117.193538 838.4959 117.486179 837.99978 117.6917 837.5036 117.89723 836.987 117.99999 836.45 118H679.55C679.01296 117.99999 678.4963 117.89723 678.0001 117.6917 677.50399 117.486179 677.066 117.193538 676.6862 116.81378 676.3064 116.43401 676.01376 115.99603 675.8082 115.499858 675.6027 115.00368 675.49996 114.48705 675.5 113.95V95.05C675.49996 94.51293 675.6027 93.99631 675.8082 93.50013 676.01376 93.003948 676.3064 92.56597 676.6862 92.18621 677.066 91.80644 677.50399 91.5138 678.0001 91.30828 678.4963 91.10276 679.01296 91 679.55 91Z" fill="#ffffff"/>
<path transform="matrix(.72031959,0,0,.72031959,.36015979,.36015979)" stroke-width="1" stroke-linecap="butt" stroke-miterlimit="4" stroke-linejoin="miter" fill="none" stroke="#000000" d="M679.55 91H836.45C836.987 91 837.5036 91.10276 837.99978 91.30828 838.4959 91.5138 838.9339 91.80644 839.3137 92.18621 839.6934 92.56597 839.9861 93.003948 840.1916 93.50013 840.39718 93.99631 840.49996 94.51293 840.5 95.05V113.95C840.49996 114.48705 840.39718 115.00368 840.19168 115.499858 839.9861 115.99603 839.6934 116.43401 839.3137 116.81378 838.9339 117.193538 838.4959 117.486179 837.99978 117.6917 837.5036 117.89723 836.987 117.99999 836.45 118H679.55C679.01296 117.99999 678.4963 117.89723 678.0001 117.6917 677.50399 117.486179 677.066 117.193538 676.6862 116.81378 676.3064 116.43401 676.01376 115.99603 675.8082 115.499858 675.6027 115.00368 675.49996 114.48705 675.5 113.95V95.05C675.49996 94.51293 675.6027 93.99631 675.8082 93.50013 676.01376 93.003948 676.3064 92.56597 676.6862 92.18621 677.066 91.80644 677.50399 91.5138 678.0001 91.30828 678.4963 91.10276 679.01296 91 679.55 91Z"/>
<text xml:space="preserve" transform="matrix(.72031959 0 0 .72031959 0 0)" font-size="11" font-family="TimesNewRomanPSMT"><tspan y="109" x="700.1875 706.52 712.02 717.52 720.578 726.078 731.578 734.328 739.828 745.328 748.078 753.578 759.078 764.578 770.078 773.741 779.241 784.741 790.241 795.741 798.491 803.991 808.875 811.933">Tuning on 2021-2022 data</tspan></text>
<path transform="matrix(.72031959,0,0,.72031959,.36015979,.36015979)" d="M679.55 118H836.45C836.987 118 837.5036 118.10276 837.99978 118.30828 838.4959 118.5138 838.9339 118.80644 839.3137 119.1862 839.6934 119.565959 839.9861 120.00393 840.1916 120.500118 840.39718 120.9963 840.49996 121.51293 840.5 122.05V140.95C840.49996 141.48705 840.39718 142.00366 840.19168 142.49985 839.9861 142.99602 839.6934 143.43399 839.3137 143.81377 838.9339 144.19353 838.4959 144.48618 837.99978 144.6917 837.5036 144.89722 836.987 144.99999 836.45 145H679.55C679.01296 144.99999 678.4963 144.89723 678.0001 144.69171 677.50399 144.48618 677.066 144.19353 676.6862 143.81378 676.3064 143.434 676.01376 142.99604 675.8082 142.49985 675.6027 142.00366 675.49996 141.48705 675.5 140.95V122.05C675.49996 121.51293 675.6027 120.9963 675.8082 120.500118 676.01376 120.00393 676.3064 119.565959 676.6862 119.1862 677.066 118.80644 677.50399 118.5138 678.0001 118.30828 678.4963 118.10276 679.01296 118 679.55 118Z" fill="#ffffff"/>
<path transform="matrix(.72031959,0,0,.72031959,.36015979,.36015979)" stroke-width="1" stroke-linecap="butt" stroke-miterlimit="4" stroke-linejoin="miter" fill="none" stroke="#000000" d="M679.55 118H836.45C836.987 118 837.5036 118.10276 837.99978 118.30828 838.4959 118.5138 838.9339 118.80644 839.3137 119.1862 839.6934 119.565959 839.9861 120.00393 840.1916 120.500118 840.39718 120.9963 840.49996 121.51293 840.5 122.05V140.95C840.49996 141.48705 840.39718 142.00366 840.19168 142.49985 839.9861 142.99602 839.6934 143.43399 839.3137 143.81377 838.9339 144.19353 838.4959 144.48618 837.99978 144.6917 837.5036 144.89722 836.987 144.99999 836.45 145H679.55C679.01296 144.99999 678.4963 144.89723 678.0001 144.69171 677.50399 144.48618 677.066 144.19353 676.6862 143.81378 676.3064 143.434 676.01376 142.99604 675.8082 142.49985 675.6027 142.00366 675.49996 141.48705 675.5 140.95V122.05C675.49996 121.51293 675.6027 120.9963 675.8082 120.500118 676.01376 120.00393 676.3064 119.565959 676.6862 119.1862 677.066 118.80644 677.50399 118.5138 678.0001 118.30828 678.4963 118.10276 679.01296 118 679.55 118Z"/>
<text xml:space="preserve" transform="matrix(.72031959 0 0 .72031959 0 0)" font-size="11" font-family="TimesNewRomanPSMT"><tspan y="136" x="699.7656 705.7168 710.60079 714.87979 717.93777 720.9957 726.4957 731.9957 734.7457 740.2457 745.7457 748.4957 753.9957 759.4957 764.9957 770.4957 774.15878 779.65878 785.15878 790.65878 796.15878 798.90878 804.40878 809.2927 812.3507">Testing on 2020-2021 data</tspan></text>
<path transform="matrix(.72031959,0,0,.72031959,.36015979,.36015979)" d="M503.08 57H635.24V94.89H503.08Z" fill="#ffffff"/>
<path transform="matrix(.72031959,0,0,.72031959,.36015979,.36015979)" stroke-width="1" stroke-linecap="butt" stroke-miterlimit="4" stroke-linejoin="miter" fill="none" stroke="#000000" d="M503.08 57H635.24V94.89H503.08Z"/>
<text xml:space="preserve" transform="matrix(.72031959 0 0 .72031959 0 0)" font-size="11" font-family="TimesNewRomanPSMT"><tspan y="80" x="515.84378 521.9598 525.01779 529.90176 534.7857 539.6697 542.4197 550.3617 553.4197 557.69869 562.58267 565.33267 568.99569 574.49569 577.55368 582.4376 586.10067 591.60067 597.10067 600.1586 605.0426 608.1006 611.15859 616.65859">Piece wise Interpolation</tspan></text>
<path transform="matrix(.72031959,0,0,.72031959,.36015979,.36015979)" stroke-width="1" stroke-linecap="butt" stroke-miterlimit="10" stroke-linejoin="miter" fill="none" stroke="#000000" d="M635 134H645 649.63"/>
<path transform="matrix(.72031959,0,0,.72031959,.36015979,.36015979)" d="M654.88 134 647.88 137.5 649.63 134 647.88 130.5 654.88 134Z"/>
<path transform="matrix(.72031959,0,0,.72031959,.36015979,.36015979)" stroke-width="1" stroke-linecap="butt" stroke-miterlimit="10" stroke-linejoin="miter" fill="none" stroke="#000000" d="M654.88 134 647.88 137.5 649.63 134 647.88 130.5 654.88 134Z"/>
<path transform="matrix(.72031959,0,0,.72031959,.36015979,.36015979)" d="M503 123.05H635V161.94H503Z" fill="#ffffff"/>
<path transform="matrix(.72031959,0,0,.72031959,.36015979,.36015979)" stroke-width="1" stroke-linecap="butt" stroke-miterlimit="4" stroke-linejoin="miter" fill="none" stroke="#000000" d="M503 123.05H635V161.94H503Z"/>
<text xml:space="preserve" transform="matrix(.72031959 0 0 .72031959 0 0)" font-size="11" font-family="TimesNewRomanPSMT"><tspan y="139" x="522.8594 528.9754 533.8594 539.3594 542.41738 545.47537 550.3593 555.8593 561.3593 564.1093 572.05136 577.55136 580.6093 585.4933 590.9933 593.7433 597.4063 600.4643 603.5223 606.58029 611.46426">Savitzky Golay filter</tspan></text>
<text xml:space="preserve" transform="matrix(.72031959 0 0 .72031959 0 0)" font-size="11" font-family="TimesNewRomanPSMT"><tspan y="153" x="544.3906 548.6696 557.2276 562.7276 568.2276 571.2856 576.7856 579.84359 585.34359">smoothing</tspan></text>
<text xml:space="preserve" transform="matrix(.72031959 0 0 .72031959 0 0)" font-size="11" font-family="TimesNewRomanPSMT"><tspan y="153" x="590.84359"> </tspan></text>
<path transform="matrix(.72031959,0,0,.72031959,.36015979,.36015979)" stroke-width="1" stroke-linecap="butt" stroke-miterlimit="10" stroke-linejoin="miter" fill="none" stroke="#000000" d="M569.2 94.89V114.9L569.16 116.68"/>
<path transform="matrix(.72031959,0,0,.72031959,.36015979,.36015979)" d="M569.03 121.93 565.7 114.85 569.16 116.68 572.7 115.02 569.03 121.93Z"/>
<path transform="matrix(.72031959,0,0,.72031959,.36015979,.36015979)" stroke-width="1" stroke-linecap="butt" stroke-miterlimit="10" stroke-linejoin="miter" fill="none" stroke="#000000" d="M569.03 121.93 565.7 114.85 569.16 116.68 572.7 115.02 569.03 121.93Z"/>
<path transform="matrix(.72031959,0,0,.72031959,.36015979,.36015979)" d="M494.5 204H643.5V261H494.5Z" fill="#ffe6cc"/>
<path transform="matrix(.72031959,0,0,.72031959,.36015979,.36015979)" stroke-width="1" stroke-linecap="butt" stroke-miterlimit="4" stroke-linejoin="miter" fill="none" stroke="#d79b00" d="M494.5 204H643.5V261H494.5Z"/>
<text xml:space="preserve" transform="matrix(.72031959 0 0 .72031959 0 0)" font-size="14" font-family="TimesNewRomanPS" font-weight="bold"><tspan y="237" x="507.98439 518.09237 525.09237 531.30838 537.26956 543.48556 547.37759 554.37759 559.03958 562.9316 569.9316 577.7156 580.4385 590.54647 598.33047 605.33047 609.2225 616.2225 621.66848 625.5605">Correlation Analysis</tspan></text>
<path transform="matrix(.72031959,0,0,.72031959,.36015979,.36015979)" d="M708 205H860V260H708Z" fill="#cdeb8b"/>
<path transform="matrix(.72031959,0,0,.72031959,.36015979,.36015979)" stroke-width="1" stroke-linecap="butt" stroke-miterlimit="4" stroke-linejoin="miter" fill="none" stroke="#36393d" d="M708 205H860V260H708Z"/>
<text xml:space="preserve" transform="matrix(.72031959 0 0 .72031959 0 0)" font-size="13" font-family="TimesNewRomanPSMT"><tspan y="230" x="716.4844 724.43167 730.2036 733.8176 737.43167 743.93167 749.7036 753.3176 756.93167 763.43167 769.93167 773.18167 778.9536 785.4536 791.2256 794.8396 801.3396 806.3966 810.0106 813.2606 816.87466 823.37466 827.7036 832.0326 835.6466 841.4186 845.0326">Validation against in-field</tspan></text>
<text xml:space="preserve" transform="matrix(.72031959 0 0 .72031959 0 0)" font-size="13" font-family="TimesNewRomanPSMT"><tspan y="246" x="737.96878 744.46878 750.96878 756.7407 763.2407 769.7407 773.35476 779.85476 786.35476 789.96878 795.7407 801.5127 805.1267 808.3767 814.8767 820.6487 824.2627">phenological data</tspan></text>
<path transform="matrix(.72031959,0,0,.72031959,.36015979,.36015979)" stroke-width="1" stroke-linecap="butt" stroke-miterlimit="10" stroke-linejoin="miter" fill="none" stroke="#000000" d="M213 71 235.63 71.39"/>
<path transform="matrix(.72031959,0,0,.72031959,.36015979,.36015979)" d="M240.88 71.48 233.82 74.86 235.63 71.39 233.94 67.86 240.88 71.48Z"/>
<path transform="matrix(.72031959,0,0,.72031959,.36015979,.36015979)" stroke-width="1" stroke-linecap="butt" stroke-miterlimit="10" stroke-linejoin="miter" fill="none" stroke="#000000" d="M240.88 71.48 233.82 74.86 235.63 71.39 233.94 67.86 240.88 71.48Z"/>
<path transform="matrix(.72031959,0,0,.72031959,0,0)" stroke-width="2" stroke-linecap="butt" stroke-miterlimit="10" stroke-linejoin="miter" fill="none" stroke="#000000" d="M708 232.5H651.74"/>
<path transform="matrix(.72031959,0,0,.72031959,0,0)" d="M645.74 232.5 653.74 228.5 651.74 232.5 653.74 236.5 645.74 232.5Z"/>
<path transform="matrix(.72031959,0,0,.72031959,0,0)" stroke-width="2" stroke-linecap="butt" stroke-miterlimit="10" stroke-linejoin="miter" fill="none" stroke="#000000" d="M645.74 232.5 653.74 228.5 651.74 232.5 653.74 236.5 645.74 232.5Z"/>
<path transform="matrix(.72031959,0,0,.72031959,0,0)" stroke-width="2" stroke-linecap="butt" stroke-miterlimit="10" stroke-linejoin="miter" fill="none" stroke="#000000" d="M448.83 131.03 482.76 130.77"/>
<path transform="matrix(.72031959,0,0,.72031959,0,0)" d="M488.76 130.73 480.79 134.79 482.76 130.77 480.73 126.79 488.76 130.73Z"/>
<path transform="matrix(.72031959,0,0,.72031959,0,0)" stroke-width="2" stroke-linecap="butt" stroke-miterlimit="10" stroke-linejoin="miter" fill="none" stroke="#000000" d="M488.76 130.73 480.79 134.79 482.76 130.77 480.73 126.79 488.76 130.73Z"/>
<path transform="matrix(.72031959,0,0,.72031959,0,0)" stroke-width="2" stroke-linecap="butt" stroke-miterlimit="10" stroke-linejoin="miter" fill="none" stroke="#000000" d="M791.27 171.34 790.71 197.15"/>
<path transform="matrix(.72031959,0,0,.72031959,0,0)" d="M790.58 203.15 786.76 195.06 790.71 197.15 794.76 195.24 790.58 203.15Z"/>
<path transform="matrix(.72031959,0,0,.72031959,0,0)" stroke-width="2" stroke-linecap="butt" stroke-miterlimit="10" stroke-linejoin="miter" fill="none" stroke="#000000" d="M790.58 203.15 786.76 195.06 790.71 197.15 794.76 195.24 790.58 203.15Z"/>
<path transform="matrix(.72031959,0,0,.72031959,0,0)" stroke-width="2" stroke-linecap="butt" stroke-miterlimit="10" stroke-linejoin="miter" fill="none" stroke="#000000" d="M411.68 231.71 486.26 232.42"/>
<path transform="matrix(.72031959,0,0,.72031959,0,0)" d="M492.26 232.48 484.23 236.4 486.26 232.42 484.3 228.4 492.26 232.48Z"/>
<path transform="matrix(.72031959,0,0,.72031959,0,0)" stroke-width="2" stroke-linecap="butt" stroke-miterlimit="10" stroke-linejoin="miter" fill="none" stroke="#000000" d="M492.26 232.48 484.23 236.4 486.26 232.42 484.3 228.4 492.26 232.48Z"/>
</g>
</svg>
